<?xml version="1.0" standalone="no"?>
<!DOCTYPE svg PUBLIC "-//W3C//DTD SVG 20010904//EN"
 "http://www.w3.org/TR/2001/REC-SVG-20010904/DTD/svg10.dtd">
<svg version="1.0" xmlns="http://www.w3.org/2000/svg"
 width="300.000000pt" height="199.000000pt" viewBox="0 0 300.000000 199.000000"
 preserveAspectRatio="xMidYMid meet">
<metadata>
Created by potrace 1.10, written by Peter Selinger 2001-2011
</metadata>
<g transform="translate(0.000000,199.000000) scale(0.100000,-0.100000)"
fill="#ffffff" stroke="none">
<path d="M1142 1578 c-34 -34 17 -244 110 -453 51 -115 58 -133 58 -140 0 -18
59 -80 87 -91 49 -21 52 -18 31 33 -6 15 -11 31 -10 36 1 4 -2 7 -8 7 -5 0
-10 6 -10 13 0 15 -123 322 -167 417 -17 36 -33 73 -37 83 -3 11 -11 15 -18
11 -9 -6 -9 -9 0 -12 7 -2 12 -14 12 -26 0 -12 4 -26 9 -31 6 -6 11 -21 13
-35 2 -14 11 -38 20 -55 8 -16 21 -46 27 -67 7 -20 34 -87 61 -149 28 -62 50
-119 50 -126 0 -7 4 -13 9 -13 5 0 11 -14 13 -32 l5 -32 -33 40 c-19 21 -34
42 -34 46 0 4 -25 63 -56 132 -30 69 -53 130 -49 136 3 5 2 10 -4 10 -8 0 -22
40 -27 75 0 6 -4 17 -7 25 -15 39 -33 135 -26 138 4 2 5 10 2 18 -3 8 0 14 6
14 6 0 16 -12 21 -26 6 -14 14 -22 20 -19 5 3 10 -1 10 -10 0 -26 73 -165 86
-165 16 0 -52 156 -93 214 -33 47 -50 55 -71 34z"/>
<path d="M1855 1535 c-45 -71 -97 -185 -92 -205 2 -9 16 8 34 40 18 30 36 60
41 65 5 6 7 16 4 23 -2 6 1 12 7 12 6 0 8 8 4 18 -3 9 -2 14 2 10 5 -5 17 6
27 23 23 38 39 29 33 -19 -7 -55 -37 -166 -48 -173 -5 -3 -7 -8 -6 -10 6 -8
-24 -99 -32 -99 -5 0 -8 -3 -7 -7 4 -13 -35 -112 -42 -108 -3 2 -6 -4 -7 -14
-2 -25 -66 -155 -78 -158 -6 -2 -11 6 -11 17 0 11 4 20 8 20 4 0 8 6 8 13 0
20 91 231 104 239 6 4 7 8 2 8 -5 0 -3 6 3 13 6 8 8 17 4 20 -3 4 -1 7 6 7 7
0 10 4 7 8 -2 4 7 35 20 67 14 33 27 67 29 75 2 8 4 15 5 15 1 0 4 14 6 30 3
20 -8 5 -32 -45 -19 -41 -42 -88 -50 -103 -8 -16 -14 -32 -14 -37 0 -5 -16
-43 -35 -84 -19 -42 -35 -79 -35 -83 0 -6 -32 -81 -49 -113 -5 -9 -12 -30 -15
-48 -4 -17 -12 -34 -17 -37 -5 -4 -9 -13 -9 -21 0 -38 92 9 114 59 120 266
187 459 198 573 3 33 -15 64 -38 64 -7 0 -29 -25 -49 -55z"/>
<path d="M1468 1083 c-16 -2 -28 -8 -28 -12 0 -5 -10 -11 -21 -14 l-21 -6 19
-33 c11 -18 26 -55 33 -83 7 -27 21 -69 31 -92 10 -24 19 -48 19 -55 0 -16
-39 32 -40 48 0 7 -17 15 -37 19 -53 10 -90 34 -104 67 -21 50 -30 42 -24 -22
2 -34 7 -66 10 -71 4 -5 2 -9 -3 -9 -11 0 -3 -96 11 -130 6 -14 10 -28 9 -32
-5 -24 61 -197 83 -218 14 -13 27 -21 31 -18 3 3 -2 29 -12 57 -9 28 -14 62
-12 76 3 14 1 25 -4 25 -6 0 -8 7 -4 15 3 8 0 15 -6 15 -6 0 -8 3 -5 7 9 8
-13 34 -24 28 -15 -10 -32 40 -35 102 -3 82 10 86 112 38 42 -20 78 -34 80
-32 9 8 -17 99 -41 147 -14 27 -25 60 -25 72 1 17 9 9 30 -32 16 -30 29 -63
30 -72 0 -24 19 -33 26 -11 10 36 57 123 65 123 13 0 13 0 -24 -87 -46 -107
-56 -169 -23 -135 4 4 11 7 14 7 4 1 21 8 37 17 31 16 82 30 133 36 6 1 12 11
12 21 0 11 4 23 10 26 12 7 10 85 -2 85 -4 0 -8 -8 -8 -17 0 -28 -31 -53 -87
-69 -44 -13 -56 -22 -72 -51 -11 -22 -21 -32 -25 -25 -4 6 0 25 9 42 18 35 55
150 48 150 -2 0 5 13 16 29 26 36 27 51 3 51 -10 0 -23 5 -29 11 -12 12 -112
20 -155 12z m107 -33 c-3 -5 -13 -10 -21 -10 -8 0 -14 -5 -14 -10 0 -7 -6 -7
-20 0 -32 17 -23 30 21 30 24 0 38 -4 34 -10z m-38 -50 c5 0 24 11 44 24 22
15 40 21 49 16 9 -6 -3 -17 -41 -39 l-53 -30 -46 26 c-25 14 -49 28 -54 31 -4
2 -2 8 5 12 7 5 28 -2 50 -16 21 -13 42 -24 46 -24z m16 -66 c-7 -18 -17 -18
-32 0 -9 11 -9 15 1 19 20 7 37 -3 31 -19z m-166 -309 c5 -4 2 -5 -4 -1 -15 9
-17 -6 -3 -20 5 -5 12 -32 15 -59 l5 -50 -20 55 c-11 30 -24 62 -29 71 -7 12
-5 15 10 14 10 -1 22 -5 26 -10z"/>
<path d="M1751 806 c-7 -8 -14 -42 -16 -75 -2 -51 -7 -65 -34 -93 -17 -18 -33
-42 -35 -53 -12 -65 -25 -123 -31 -142 -11 -34 16 -29 40 8 11 16 19 34 18 40
-2 5 2 9 8 9 5 0 8 4 5 9 -4 5 -1 11 5 13 6 2 12 16 12 31 1 15 5 27 8 27 6 0
19 48 24 85 1 6 4 26 8 45 19 108 16 130 -12 96z m-20 -173 c-11 -16 -30 -59
-42 -96 -11 -38 -22 -67 -24 -65 -2 2 2 30 7 63 8 45 18 68 41 93 38 39 44 41
18 5z"/>
</g>
</svg>
